<?xml version="1.0" encoding="UTF-8" standalone="no"?>
<!-- Created with Inkscape (http://www.inkscape.org/) -->

<svg
   version="1.1"
   id="svg1"
   width="256"
   height="256"
   viewBox="0 0 256 256"
   sodipodi:docname="wildeats.svg"
   inkscape:version="1.3.2 (091e20e, 2023-11-25, custom)"
   xmlns:inkscape="http://www.inkscape.org/namespaces/inkscape"
   xmlns:sodipodi="http://sodipodi.sourceforge.net/DTD/sodipodi-0.dtd"
   xmlns="http://www.w3.org/2000/svg"
   xmlns:svg="http://www.w3.org/2000/svg">
  <defs
     id="defs1" />
  <sodipodi:namedview
     id="namedview1"
     pagecolor="#505050"
     bordercolor="#eeeeee"
     borderopacity="1"
     inkscape:showpageshadow="0"
     inkscape:pageopacity="0"
     inkscape:pagecheckerboard="0"
     inkscape:deskcolor="#505050"
     inkscape:zoom="3.1757812"
     inkscape:cx="128"
     inkscape:cy="127.68512"
     inkscape:window-width="1920"
     inkscape:window-height="1009"
     inkscape:window-x="1912"
     inkscape:window-y="-8"
     inkscape:window-maximized="1"
     inkscape:current-layer="svg1" />
  <circle
     style="fill:#4ba6ff;fill-opacity:1;stroke:none"
     id="path1"
     cx="128"
     cy="128"
     r="128" />
  <path
     id="path30"
     style="fill:#ffffff;fill-opacity:1;stroke:none;stroke-width:1.20971"
     d="m 103.24078,197.60025 c -16.737668,-2.29154 -23.965283,-3.63293 -38.710831,-7.1844 -15.497591,-3.73261 -39.18234,-11.15564 -36.287557,-11.37288 0.66746,-0.0501 4.91082,0.96624 9.429668,2.25852 10.731768,3.06901 34.193664,7.85414 51.657015,10.53561 19.172435,2.9439 58.234545,2.94519 77.421665,0.002 17.35212,-2.66121 40.16586,-7.32215 51.82332,-10.58773 4.88318,-1.3679 9.10686,-2.25875 9.38595,-1.97966 1.46216,1.46216 -37.52251,12.13958 -59.03803,16.16978 -9.58549,1.79553 -56.96016,3.35219 -65.6812,2.15821 z M 127.81072,75.018138 c -14.85483,0.03169 -29.677109,3.649064 -44.171073,10.851988 -25.636973,12.740557 -44.067199,35.687454 -51.263978,63.826564 -2.981109,11.656 -3.050148,17.87297 -0.205555,18.70329 36.472304,10.64608 52.255472,13.78459 76.897136,15.29154 8.77181,0.53638 19.75897,0.78912 24.41637,0.56232 36.41247,-1.7731 51.20077,-4.19075 81.95808,-13.40135 l 10.585,-3.16841 v -4.4561 c 0,-6.32642 -4.02098,-21.23741 -8.23173,-30.52399 C 208.63043,112.49201 192.02602,95.377845 172.17318,85.681108 157.5532,78.540242 142.66555,74.986479 127.81072,75.018138 Z m 0.22919,9.061044 c 14.72845,0 17.28088,0.33053 26.00884,3.362156 20.37425,7.076896 39.18534,23.028612 48.2515,40.917602 4.09056,8.07131 4.19006,8.48222 1.10811,4.62385 C 185.70614,110.82088 167.95079,99.307986 144.66638,94.890996 132.651,92.611714 123.52577,92.575229 112.11752,94.765766 92.613882,98.510724 76.092838,107.39625 63.315506,121.01088 c -3.994305,4.25607 -8.783972,9.64321 -10.644051,11.97191 -3.081951,3.85837 -2.982452,3.44746 1.108109,-4.62385 9.066161,-17.88899 27.877254,-33.840706 48.251506,-40.917602 8.72796,-3.031626 11.28038,-3.362156 26.00884,-3.362156 z m -6.76262,-15.664398 c -1.32188,-3.444756 0.13715,-7.344679 3.4359,-9.184084 2.99033,-1.667433 3.6631,-1.666828 6.65343,0.006 2.63006,1.471266 3.32671,2.737884 3.32671,6.048567 v 4.18752 l -6.36452,0.36612 c -4.75041,0.273262 -6.53876,-0.08795 -7.05152,-1.424171 z" />
  <text
     xml:space="preserve"
     style="font-size:93.3333px;font-family:'Impact';fill:#4ba6ff;fill-opacity:1;stroke:none"
     x="89.992203"
     y="179.69077"
     id="text1"><tspan
       sodipodi:role="line"
       id="tspan1"
       x="89.992203"
       y="179.69077"
       style="font-style:normal;font-variant:normal;font-weight:normal;font-stretch:normal;font-size:93.3333px;font-family:Impact;-inkscape-font-specification:Impact">W</tspan></text>
</svg>
