<?xml version="1.0" encoding="UTF-8" standalone="no"?>
<!-- Created with Inkscape (http://www.inkscape.org/) -->

<svg
   version="1.1"
   id="svg1"
   width="256"
   height="256"
   viewBox="0 0 256 256"
   sodipodi:docname="wildeats.svg"
   inkscape:version="1.3.2 (091e20e, 2023-11-25, custom)"
   xmlns:inkscape="http://www.inkscape.org/namespaces/inkscape"
   xmlns:sodipodi="http://sodipodi.sourceforge.net/DTD/sodipodi-0.dtd"
   xmlns="http://www.w3.org/2000/svg"
   xmlns:svg="http://www.w3.org/2000/svg">
  <defs
     id="defs1" />
  <sodipodi:namedview
     id="namedview1"
     pagecolor="#505050"
     bordercolor="#eeeeee"
     borderopacity="1"
     inkscape:showpageshadow="0"
     inkscape:pageopacity="0"
     inkscape:pagecheckerboard="0"
     inkscape:deskcolor="#505050"
     inkscape:zoom="3.1757812"
     inkscape:cx="128"
     inkscape:cy="128"
     inkscape:window-width="1920"
     inkscape:window-height="1009"
     inkscape:window-x="-8"
     inkscape:window-y="-8"
     inkscape:window-maximized="1"
     inkscape:current-layer="svg1" />
  <g
     id="g33"
     transform="matrix(1.5484332,0,0,1.5484332,-220.34639,-176.32531)">
    <path
       id="path30"
       style="fill:#9acd32;fill-opacity:1"
       d="m 204.5,234.41551 c -13.83606,-1.89428 -19.81071,-3.00313 -32,-5.93893 -12.81096,-3.08553 -32.38977,-9.22172 -29.99682,-9.4013 0.55175,-0.0414 4.05949,0.79874 7.79496,1.86699 8.87133,2.53697 28.26592,6.49256 42.70186,8.70918 15.84874,2.43355 48.13912,2.43462 64,0.002 14.34399,-2.19987 33.20279,-6.0528 42.83934,-8.75226 4.03664,-1.13077 7.52811,-1.86718 7.75882,-1.63647 1.20868,1.20868 -31.01769,10.03508 -48.80332,13.36662 -7.92377,1.48426 -47.08566,2.77106 -54.29484,1.78406 z m 20.31055,-101.33153 c -12.27963,0.0262 -24.53235,3.01647 -36.51367,8.97071 -21.1926,10.53188 -36.4278,29.50075 -42.37696,52.76172 -2.46431,9.63534 -2.52138,14.77455 -0.16992,15.46093 30.14954,8.8005 43.19657,11.39492 63.56641,12.64063 7.25114,0.44339 16.33359,0.65232 20.18359,0.46484 30.10008,-1.46572 42.32471,-3.46425 67.75,-11.07812 l 8.75,-2.61914 v -3.6836 c 0,-5.22969 -3.32391,-17.55574 -6.80469,-25.23242 -7.5758,-16.70807 -21.3017,-30.85536 -37.71289,-38.87109 -12.08549,-5.90294 -24.39225,-8.84063 -36.67187,-8.81446 z M 225,140.57422 c 12.17516,0 14.2851,0.27323 21.5,2.7793 16.84221,5.85006 32.39225,19.03642 39.88672,33.82421 3.38143,6.67209 3.46368,7.01176 0.91601,3.82227 -14.6334,-18.31997 -29.31072,-27.83701 -48.55859,-31.48828 -9.93242,-1.88415 -17.47571,-1.91431 -26.90625,-0.10352 -16.12253,3.09574 -29.77952,10.44089 -40.3418,21.69532 -3.30186,3.51824 -7.2612,7.97148 -8.79882,9.89648 -2.54767,3.18949 -2.46542,2.84982 0.91601,-3.82227 7.49447,-14.78779 23.04451,-27.97415 39.88672,-33.82421 7.2149,-2.50607 9.32484,-2.7793 21.5,-2.7793 z m -5.59026,-12.94885 c -1.09272,-2.84758 0.11337,-6.07142 2.84026,-7.59195 2.47193,-1.37837 3.02807,-1.37787 5.5,0.005 2.17412,1.21621 2.75,2.26325 2.75,5 V 128.5 l -5.26118,0.30265 c -3.92689,0.22589 -5.40521,-0.0727 -5.82908,-1.17728 z" />
    <!-- <text
       xml:space="preserve"
       style="font-style:normal;font-variant:normal;font-weight:normal;font-stretch:normal;font-size:37.3333px;font-family:'Segoe Script';-inkscape-font-specification:'Segoe Script';fill:#9acd32;fill-opacity:1;stroke:none;stroke-width:1"
       x="138.39677"
       y="272.32471"
       id="text33"><tspan
         sodipodi:role="line"
         id="tspan33"
         x="138.39677"
         y="272.32471"
         style="font-style:normal;font-variant:normal;font-weight:normal;font-stretch:normal;font-size:37.3333px;font-family:'MV Boli';-inkscape-font-specification:'MV Boli';fill:#9acd32;fill-opacity:1;stroke:none">Wild Eats</tspan></text> -->
  </g>
</svg>
